<?xml version="1.0" encoding="UTF-8"?>
<svg width="20" height="20" version="1.1" viewBox="0 0 20 20" xmlns="http://www.w3.org/2000/svg">
 <g transform="matrix(5.04 0 0 4.87 -.667 -1.6)" fill="#fff" fill-rule="evenodd" stroke-width=".0712">
  <path d="m3.63 3.03-0.362-0.369v-1.06c0-0.587-0.511-1.07-1.16-1.07-0.648 0-1.16 0.472-1.16 1.07v1.06l-0.362 0.369c-0.0622 0.0692-0.0872 0.161-0.0373 0.242 0.0373 0.0806 0.125 0.138 0.225 0.138h2.66c0.0997 0 0.187-0.0577 0.225-0.138 0.0622-0.0806 0.0497-0.172-0.025-0.242z"/>
  <path d="m2.55 3.61h-0.866c-0.0866 0-0.162 0.0962-0.162 0.206s0.0757 0.205 0.162 0.205h0.866c0.0866 0 0.162-0.0955 0.162-0.205 0-0.109-0.0757-0.206-0.162-0.206z"/>
 </g>
</svg>
